<svg preserveAspectRatio="none" overflow="visible" style="display: block;" width="29.9254" height="30" viewBox="0 0 29.9254 30" fill="none" xmlns="http://www.w3.org/2000/svg">
<g id="Container">
<path id="Icon" d="M14.9625 30C12.6125 29.7 10.5125 29.1 8.6625 28.2C6.8125 27.3 5.24375 26.125 3.95625 24.675C2.66875 23.225 1.6875 21.5438 1.0125 19.6313C0.3375 17.7188 0 15.6 0 13.275C2.75 13.55 5.075 14.05 6.975 14.775C8.875 15.5 10.4187 16.525 11.6062 17.85C12.7937 19.175 13.65 20.8313 14.175 22.8188C14.7 24.8063 14.9625 27.2 14.9625 30V30M14.9625 17.3625C14.3875 16.4875 13.6062 15.625 12.6187 14.775C11.6312 13.925 10.4875 13.15 9.1875 12.45C9.3375 11.4 9.5875 10.3125 9.9375 9.1875C10.2875 8.0625 10.7125 6.95625 11.2125 5.86875C11.7125 4.78125 12.2812 3.7375 12.9187 2.7375C13.5562 1.7375 14.2375 0.825 14.9625 0C15.6875 0.825 16.3688 1.7375 17.0063 2.7375C17.6438 3.7375 18.2125 4.78125 18.7125 5.86875C19.2125 6.95625 19.6375 8.0625 19.9875 9.1875C20.3375 10.3125 20.5875 11.4 20.7375 12.45C19.4375 13.125 18.2937 13.8875 17.3062 14.7375C16.3187 15.5875 15.5375 16.4625 14.9625 17.3625V17.3625M17.9625 29.4C17.9125 27.65 17.7813 26.0313 17.5688 24.5438C17.3563 23.0563 17.025 21.65 16.575 20.325C17.75 18.3 19.3687 16.65 21.4312 15.375C23.4937 14.1 26.325 13.4 29.925 13.275C29.95 17.225 28.8938 20.6312 26.7563 23.4937C24.6188 26.3562 21.6875 28.325 17.9625 29.4V29.4" fill="#25533F"/>
</g>
</svg>
