<svg preserveAspectRatio="none" overflow="visible" style="display: block;" width="20" height="20" viewBox="0 0 20 20" fill="none" xmlns="http://www.w3.org/2000/svg">
<g id="fi-br-smile" clip-path="url(#clip0_0_45)">
<path id="Vector" d="M7.08333 5.83333C7.65416 5.85226 8.19415 6.09692 8.58475 6.51362C8.97535 6.93031 9.18464 7.48497 9.16667 8.05583C9.16667 9.16667 8.23417 9.16667 7.08333 9.16667C5.9325 9.16667 5 9.16667 5 8.05583C4.98202 7.48497 5.19131 6.93031 5.58191 6.51362C5.97251 6.09692 6.5125 5.85226 7.08333 5.83333V5.83333ZM10.8333 8.05583C10.8333 9.16667 11.7658 9.16667 12.9167 9.16667C14.0675 9.16667 15 9.16667 15 8.05583C15.018 7.48497 14.8087 6.93031 14.4181 6.51362C14.0275 6.09692 13.4875 5.85226 12.9167 5.83333C12.3458 5.85226 11.8058 6.09692 11.4152 6.51362C11.0246 6.93031 10.8154 7.48497 10.8333 8.05583ZM20 10C20 8.02219 19.4135 6.08879 18.3147 4.4443C17.2159 2.7998 15.6541 1.51808 13.8268 0.761204C11.9996 0.00432746 9.98891 -0.193706 8.0491 0.192146C6.10929 0.577998 4.32746 1.53041 2.92893 2.92893C1.53041 4.32746 0.577998 6.10929 0.192146 8.0491C-0.193706 9.98891 0.00432746 11.9996 0.761204 13.8268C1.51808 15.6541 2.7998 17.2159 4.4443 18.3147C6.08879 19.4135 8.02219 20 10 20C12.6513 19.9971 15.1932 18.9426 17.0679 17.0679C18.9426 15.1932 19.9971 12.6513 20 10ZM17.5 10C17.5 11.4834 17.0601 12.9334 16.236 14.1668C15.4119 15.4001 14.2406 16.3614 12.8701 16.9291C11.4997 17.4968 9.99168 17.6453 8.53682 17.3559C7.08196 17.0665 5.74559 16.3522 4.6967 15.3033C3.6478 14.2544 2.9335 12.918 2.64411 11.4632C2.35472 10.0083 2.50325 8.50032 3.0709 7.12987C3.63856 5.75943 4.59985 4.58809 5.83322 3.76398C7.06659 2.93987 8.51664 2.5 10 2.5C11.9884 2.50242 13.8946 3.29338 15.3006 4.69938C16.7066 6.10537 17.4976 8.01162 17.5 10V10ZM14.6308 12.97C14.8602 12.7356 14.9883 12.4205 14.9875 12.0925C14.9866 11.7645 14.8569 11.45 14.6263 11.2168C14.3958 10.9836 14.0827 10.8504 13.7548 10.8458C13.4269 10.8413 13.1103 10.9658 12.8733 11.1925C12.0884 11.9369 11.0769 12.3972 10 12.5C8.92506 12.3975 7.91519 11.9388 7.13083 11.1967C6.89435 10.9696 6.57814 10.8446 6.25034 10.8485C5.92254 10.8523 5.60938 10.9848 5.37833 11.2174C5.14729 11.45 5.01686 11.764 5.01515 12.0918C5.01343 12.4196 5.14057 12.735 5.36917 12.97C6.62385 14.1735 8.26477 14.8928 10 15C11.7352 14.8928 13.3762 14.1735 14.6308 12.97V12.97Z" fill="#25533F" fill-opacity="0.8"/>
</g>
<defs>
<clipPath id="clip0_0_45">
<rect width="20" height="20" fill="white"/>
</clipPath>
</defs>
</svg>
